<svg xmlns="http://www.w3.org/2000/svg" viewBox="0 0 320 96" role="img" aria-labelledby="t"><title id="t">DP</title><defs><linearGradient id="g" x1="0" x2="1"><stop stop-color="#29496f"/><stop offset="1" stop-color="#8693a7"/></linearGradient></defs><path d="M18 22h34c24 0 39 10 39 26 0 17-15 27-39 27H18V22Zm21 17v19h12c12 0 19-3 19-10 0-6-7-9-19-9H39Z" fill="url(#g)"/><path d="M104 22h39c24 0 36 8 36 24 0 16-12 24-36 24h-18v5h-21V22Zm21 17v14h17c10 0 15-2 15-7s-5-7-15-7h-17Z" fill="url(#g)"/><text x="195" y="60" font-family="Arial Black,Arial,sans-serif" font-size="26" font-weight="900" fill="#53637a">SERIES</text></svg>